PathFileType	4	(X/Y/Z)	D:\Share\Shared_Data\Ergonomics\Sit To Stand Pertubation\S3\Unperturbed.trc
DataRate	CameraRate	NumFrames	NumMarkers	Units	OrigDataRate	OrigDataStartFrame	OrigNumFrames	
100	100	19	18	m	100	2107	211
Frame#	Time	R_Thigh			R_ASIS			R_Pelvis			V_Sacral			L_Pelvis			L_ASIS			Clavical			R_Acromium			L_Acromium			Sternum			Torso			R_Thigh_Med			R_Thigh_Lat			R_Shank_Med			R_Shank_Lat			R_Shank			R_Heel			R_Toe			
		X1	Y1	Z1	X2	Y2	Z2	X3	Y3	Z3	X4	Y4	Z4	X5	Y5	Z5	X6	Y6	Z6	X7	Y7	Z7	X8	Y8	Z8	X9	Y9	Z9	X10	Y10	Z10	X11	Y11	Z11	X12	Y12	Z12	X13	Y13	Z13	X14	Y14	Z14	X15	Y15	Z15	X16	Y16	Z16	X17	Y17	Z17	X18	Y18	Z18	

2107	21.06	0.14323421	0.58057843	0.10692033	-0.027946394	0.6490766	0.14069344	-0.13865625	0.62610895	0.18967833	-0.24430417	0.62283246	0.002266844	-0.1308866	0.64869873	-0.20063686	-0.024681234	0.6534967	-0.14012999	-0.044862015	1.0347079	0.00066771054	-0.10360372	1.0957009	0.16221577	-0.06361475	1.0905017	-0.1592467	-0.024152895	0.9552702	0.0060217357	-0.034138615	1.0166155	-0.06306377	0.32924911	0.46938351	0.07297451	0.31122485	0.45002991	0.19044995	0.25771884	0.10748048	0.093473389	0.23556903	0.097260506	0.17365372	0.25561426	0.27340634	0.19622887	0.17954233	0.058081898	0.12751083	0.39752432	0.051402809	0.13442053
2108	21.07	0.14328027	0.58056824	0.10706718	-0.027862114	0.64901178	0.14075996	-0.13844899	0.62613727	0.18981439	-0.24430144	0.62296478	0.0025697832	-0.1311187	0.64874255	-0.20047388	-0.024795774	0.65351233	-0.14012503	-0.044467186	1.0345796	0.00044463685	-0.10238941	1.0955891	0.16236617	-0.063804226	1.0905068	-0.15934544	-0.023880133	0.95513348	0.0057641897	-0.03408218	1.0164906	-0.063330078	0.32931384	0.46939276	0.073155983	0.31124551	0.45000162	0.19059991	0.25771387	0.10748746	0.093493919	0.23555913	0.097292168	0.17370831	0.25563512	0.27338663	0.19631104	0.17954463	0.058085377	0.12751366	0.39752527	0.051401344	0.13442767
2109	21.08	0.14334129	0.58054974	0.10720805	-0.027734991	0.64895471	0.14080975	-0.13820039	0.62618292	0.18995758	-0.24428766	0.62311346	0.0029007914	-0.13137459	0.64878229	-0.20030927	-0.024915102	0.6535238	-0.14013684	-0.044024666	1.0344393	0.0002032624	-0.10114027	1.0955127	0.16249673	-0.063942989	1.0904948	-0.15944797	-0.023565834	0.95500287	0.0054852257	-0.033978394	1.0163659	-0.063594738	0.32938342	0.46939917	0.073350464	0.31127606	0.44997247	0.19076587	0.25770737	0.1074945	0.093515022	0.23555183	0.097316124	0.17376796	0.25565758	0.27335989	0.19640376	0.17954628	0.058088753	0.12751751	0.39752591	0.051399769	0.13443562
2110	21.09	0.14341704	0.5805238	0.10733926	-0.027562723	0.64890521	0.14084372	-0.13791628	0.62624084	0.1900992	-0.24425914	0.62327533	0.0032488325	-0.13163887	0.64882056	-0.20014857	-0.025029087	0.65353064	-0.1401646	-0.043537525	1.034278	-6.3815475e-05	-0.099872383	1.0954703	0.16261081	-0.064036804	1.0904716	-0.15955182	-0.023216801	0.95487903	0.0051906805	-0.033834282	1.0162421	-0.063852287	0.32945645	0.46940237	0.073551094	0.31131754	0.44994247	0.19094391	0.25769962	0.10750143	0.093536049	0.23554538	0.097342087	0.17383067	0.25568265	0.27332593	0.19650555	0.17954738	0.058092106	0.12752236	0.39752609	0.051398155	0.13444426
2111	21.1	0.14350732	0.58049219	0.10745888	-0.027343512	0.64886176	0.1408645	-0.13760379	0.62630695	0.19023827	-0.24421243	0.62344708	0.0036027687	-0.13189597	0.64886023	-0.19999464	-0.025127625	0.65353265	-0.14020627	-0.043008228	1.0340806	-0.00036773261	-0.09859729	1.0954579	0.16271384	-0.064088669	1.0904431	-0.15965332	-0.022838135	0.95476331	0.0048872428	-0.033655685	1.0161216	-0.064098763	0.32953311	0.4694007	0.073751793	0.31137082	0.44991125	0.19112984	0.25769107	0.10750835	0.093556526	0.2355231	0.097404999	0.1738878	0.25571201	0.27328546	0.19661447	0.1795484	0.058095818	0.127528	0.39752588	0.051396572	0.13445332
2112	21.11	0.14361157	0.58045685	0.10756636	-0.027077211	0.64882086	0.14087546	-0.13727069	0.62637714	0.19037706	-0.244145	0.62362476	0.0039515491	-0.13213103	0.64890405	-0.19984976	-0.025201502	0.65352942	-0.14025847	-0.042437767	1.0338304	-0.00072176242	-0.097322548	1.0954702	0.16281099	-0.064097343	1.0904144	-0.15974817	-0.02243302	0.95465643	0.0045819702	-0.033444977	1.0160067	-0.064330948	0.32961548	0.46939227	0.073947784	0.31143628	0.44987888	0.19131897	0.25768228	0.10751541	0.093576271	0.23546906	0.097530838	0.1739248	0.25574675	0.27324005	0.1967278	0.17955014	0.05810041	0.12753391	0.39752585	0.051394627	0.13446227
2113	21.12	0.14372855	0.58041931	0.10766202	-0.026766504	0.64877893	0.14088005	-0.13692464	0.62644806	0.19051787	-0.24405536	0.62380518	0.0042847271	-0.13233118	0.64895502	-0.19971748	-0.025243164	0.65352075	-0.14031705	-0.041824471	1.033512	-0.0011372508	-0.096053543	1.0955002	0.16290584	-0.064055595	1.0903878	-0.15983028	-0.022002886	0.95455896	0.004282073	-0.033199146	1.0159004	-0.0645457	0.32970667	0.46937549	0.07413562	0.31151279	0.44984531	0.19150635	0.25767401	0.10752277	0.093595238	0.23537996	0.097719727	0.1739317	0.2557868	0.27319183	0.19684174	0.17955319	0.058106319	0.12753971	0.39752698	0.051391422	0.1344702
2114	21.13	0.14385597	0.58038068	0.10774628	-0.026417233	0.64873352	0.14088185	-0.13657286	0.62651733	0.19066283	-0.24394278	0.62398602	0.0045930705	-0.13248624	0.64901617	-0.19960262	-0.025247107	0.65350665	-0.14037753	-0.041166458	1.033121	-0.001616047	-0.094795723	1.0955403	0.1630005	-0.06395013	1.0903651	-0.15989212	-0.021547768	0.95447095	0.0039951968	-0.032909653	1.0158046	-0.064739471	0.32980881	0.46935004	0.074312363	0.31159857	0.44981061	0.19168683	0.25766721	0.10753058	0.093613258	0.23526666	0.097948837	0.17391277	0.25583115	0.27314328	0.19695195	0.17955768	0.058113655	0.12754503	0.39753003	0.051386185	0.13447627
2115	21.14	0.14399054	0.58034161	0.10781921	-0.026037355	0.64868408	0.14088448	-0.13622157	0.62658405	0.19081335	-0.24380701	0.62416577	0.0048690233	-0.13258917	0.64909015	-0.19951088	-0.025209824	0.65348676	-0.14043587	-0.040467178	1.0326729	-0.0021394968	-0.09355648	1.0955835	0.16309641	-0.063765205	1.0903463	-0.15992827	-0.021067074	0.95439276	0.0037298799	-0.032564877	1.0157216	-0.064908318	0.32992145	0.46931708	0.074474762	0.3116915	0.44977463	0.19185545	0.25766296	0.10753883	0.093629974	0.23514734	0.098184349	0.17388229	0.25587836	0.27309729	0.19705412	0.17956317	0.058122089	0.12754977	0.39753522	0.051378838	0.13448016
2116	21.15	0.1441283	0.58030249	0.10788035	-0.025635244	0.64863062	0.14089034	-0.13587534	0.62664832	0.19096837	-0.24364801	0.62434406	0.0051071024	-0.13263615	0.64917908	-0.19944865	-0.025129669	0.65346082	-0.14048897	-0.039737953	1.0322097	-0.0026614826	-0.092345825	1.0956229	0.16319461	-0.063489834	1.0903295	-0.15993884	-0.020560276	0.95432556	0.0034953151	-0.032154655	1.015653	-0.065047783	0.33004199	0.46927899	0.074619019	0.31178964	0.4497377	0.19200728	0.25766199	0.10754726	0.093644791	0.2350374	0.098399025	0.17385399	0.25592688	0.27305658	0.19714433	0.17956912	0.058131031	0.12755386	0.39754208	0.051370117	0.13448207
2117	21.16	0.14426515	0.58026361	0.10792901	-0.025218761	0.64857233	0.14089909	-0.13553674	0.62671027	0.19112244	-0.24346588	0.62452106	0.005304194	-0.13262663	0.6492843	-0.199424	-0.025006987	0.65342889	-0.1405349	-0.038993542	1.0317876	-0.0031222496	-0.091175201	1.0956533	0.16329625	-0.063122169	1.0903075	-0.15992795	-0.020027344	0.95426971	0.0033001268	-0.031674835	1.0156009	-0.065153641	0.3301662	0.46923846	0.074741158	0.31189117	0.44970068	0.19213762	0.25766461	0.10755547	0.093657066	0.23494472	0.098580574	0.17383449	0.25597507	0.2730231	0.19721948	0.17957516	0.05813998	0.12755746	0.3975499	0.051361076	0.13448259
2118	21.17	0.14439745	0.58022595	0.10796429	-0.024796181	0.6485069	0.14090703	-0.13520766	0.62677075	0.1912648	-0.24326102	0.62469794	0.0054592733	-0.13256296	0.64940631	-0.19944809	-0.0248445	0.65339172	-0.14057253	-0.038245316	1.0314475	-0.0034779198	-0.090054291	1.0956714	0.16340317	-0.062667831	1.0902736	-0.159899	-0.019468927	0.95422455	0.0031509359	-0.031128298	1.015566	-0.065222504	0.33028894	0.46919833	0.0748377	0.31199423	0.4496647	0.19224261	0.25767068	0.10756308	0.093666191	0.23487195	0.098727074	0.17382278	0.25602112	0.27299774	0.19727756	0.17958092	0.058148647	0.12756079	0.39755798	0.051352371	0.13448215
2119	21.18	0.14452231	0.58019067	0.10798502	-0.024377935	0.64843127	0.1409077	-0.13489046	0.62683044	0.19138252	-0.24303467	0.62487604	0.0055724707	-0.13244902	0.64954492	-0.19953494	-0.024646687	0.65335028	-0.14060136	-0.03749905	1.0312025	-0.0037146399	-0.088988029	1.0956757	0.1635191	-0.062136536	1.0902252	-0.15985214	-0.018886267	0.95418756	0.0030515807	-0.030521095	1.0155469	-0.065251503	0.33040503	0.46916107	0.074906441	0.31209647	0.44963147	0.19231963	0.25767944	0.10756975	0.093671761	0.23482089	0.098841003	0.17381177	0.25606308	0.27298035	0.1973177	0.17958606	0.058156811	0.12756385	0.39756622	0.051344082	0.13448074
2120	21.19	0.14463773	0.58015936	0.1079895	-0.023977455	0.64834344	0.14089427	-0.13458875	0.62689197	0.19146661	-0.24278976	0.62505634	0.0056442118	-0.13228854	0.64969861	-0.19969577	-0.024418062	0.65330634	-0.14062166	-0.036755936	1.0310436	-0.0038402302	-0.087975006	1.0956665	0.16364917	-0.061540287	1.0901661	-0.15978461	-0.01828093	0.95415485	0.003003171	-0.029858868	1.0155408	-0.065238457	0.33050992	0.46912839	0.074946968	0.31219504	0.44960278	0.19236766	0.25768994	0.10757518	0.093673866	0.2347939	0.098926521	0.17379182	0.2560993	0.27296997	0.19734004	0.17959029	0.058164223	0.12756635	0.39757455	0.051336235	0.13447858
2121	21.2	0.14474219	0.58013391	0.10797562	-0.023610649	0.64824292	0.14086258	-0.13430647	0.62695947	0.19151482	-0.24253085	0.62523981	0.0056750751	-0.13208359	0.64986469	-0.1999306	-0.024161894	0.65326141	-0.14063438	-0.036014114	1.0309515	-0.0038725297	-0.087008118	1.0956445	0.16379764	-0.060892929	1.0901044	-0.15969157	-0.017654823	0.95412195	0.0030047357	-0.029148962	1.0155436	-0.065183533	0.33060059	0.46910156	0.074960503	0.31228635	0.44958026	0.19238704	0.25770148	0.10757922	0.09367292	0.23479228	0.098988861	0.17375684	0.25612875	0.27296555	0.19734555	0.17959328	0.058170784	0.12756787	0.39758249	0.051329052	0.134476
2122	21.21	0.1448344	0.58011578	0.10794077	-0.023294147	0.64813196	0.14081236	-0.13404649	0.62703772	0.19153058	-0.24226247	0.62542773	0.0056662922	-0.13183434	0.6500379	-0.20022211	-0.023880377	0.65321674	-0.14064079	-0.035270035	1.0309037	-0.0038333132	-0.086076241	1.0956097	0.16396574	-0.060209381	1.0900508	-0.15956816	-0.017010172	0.95408441	0.003053946	-0.028402529	1.015551	-0.065090477	0.33067474	0.46908081	0.074948761	0.31236713	0.44956546	0.19237932	0.25771335	0.10758191	0.093669609	0.23481349	0.099033821	0.17370741	0.25615079	0.27296619	0.19733589	0.17959482	0.058176517	0.12756809	0.39758978	0.051322563	0.13447325
2123	21.22	0.14491307	0.58010614	0.10788222	-0.023041828	0.64801385	0.1407462	-0.13381	0.62713086	0.19152078	-0.24198755	0.62562207	0.0056202908	-0.13154007	0.650211	-0.20053557	-0.023575516	0.65317249	-0.14064185	-0.034518551	1.0308785	-0.0037450387	-0.085165817	1.0955626	0.16415155	-0.059503368	1.0900144	-0.15941219	-0.016349121	0.95403845	0.0031475325	-0.027630079	1.015559	-0.064964851	0.3307308	0.46906577	0.074913147	0.31243451	0.44955969	0.1923466	0.25772528	0.10758343	0.093664803	0.23485054	0.099066971	0.17365012	0.2561651	0.27297119	0.19731308	0.17959473	0.058181515	0.12756698	0.39759589	0.051316746	0.13447041
2124	21.23	0.14497743	0.58010529	0.10779747	-0.022860432	0.64789185	0.1406676	-0.13359653	0.62724213	0.19149417	-0.24170743	0.62582458	0.0055407009	-0.13120123	0.65037689	-0.2008307	-0.023249695	0.6531283	-0.14063821	-0.033752666	1.0308577	-0.0036281052	-0.084261452	1.0955026	0.16435091	-0.058785076	1.0899991	-0.15922626	-0.0156733	0.95398169	0.0032815053	-0.026836847	1.0155655	-0.064811989	0.33076807	0.46905533	0.074854927	0.31248672	0.449564	0.19229118	0.25773706	0.107584	0.093659622	0.23489496	0.099092941	0.17359334	0.25617166	0.27298038	0.19727936	0.17959309	0.058185928	0.12756509	0.39760019	0.05131189	0.13446765
2125	21.24	0.14502754	0.58011304	0.1076848	-0.022744709	0.64777002	0.14058012	-0.13340424	0.62737274	0.191459	-0.24142294	0.62603607	0.0054316597	-0.13082086	0.65053229	-0.20107895	-0.022905666	0.65308295	-0.14063086	-0.032964546	1.0308267	-0.0034981265	-0.083346153	1.0954285	0.1645593	-0.058060959	1.0900045	-0.15901724	-0.014983514	0.95391266	0.003450856	-0.026023867	1.015569	-0.064637283	0.33078726	0.46904797	0.074775963	0.31252274	0.44957971	0.19221523	0.25774854	0.10758389	0.093655159	0.23494235	0.099114349	0.17354364	0.25617075	0.27299396	0.19723689	0.17959035	0.058189823	0.1275633	0.39760214	0.051308689	0.13446538
